<?xml version="1.0" encoding="utf-8"?>
<svg version="1.1" xmlns:xlink="http://www.w3.org/1999/xlink" width="12px" height="12px" xmlns="http://www.w3.org/2000/svg">
  <g transform="matrix(1 0 0 1 -1345 -153 )">
    <path d="M 1.875 2.14285714285714  L 4.71428571428571 2.14285714285714  L 4.71428571428571 7.28571428571429  C 4.71428571428571 7.40178571428571  4.671875 7.50223214285714  4.58705357142857 7.58705357142857  C 4.50223214285714 7.671875  4.40178571428571 7.71428571428571  4.28571428571429 7.71428571428571  L 4.28571428571429 11.5714285714286  C 4.28571428571429 11.6875  4.24330357142857 11.7879464285714  4.15848214285714 11.8727678571429  C 4.07366071428571 11.9575892857143  3.97321428571429 12  3.85714285714286 12  L 0.428571428571429 12  C 0.3125 12  0.212053571428571 11.9575892857143  0.127232142857143 11.8727678571429  C 0.0424107142857143 11.7879464285714  0 11.6875  0 11.5714285714286  L 0 8.14285714285714  L 1.66741071428571 2.296875  C 1.69866071428571 2.19419642857143  1.76785714285714 2.14285714285714  1.875 2.14285714285714  Z M 5.14285714285714 2.14285714285714  L 6.85714285714286 2.14285714285714  L 6.85714285714286 6.85714285714286  L 5.14285714285714 6.85714285714286  L 5.14285714285714 2.14285714285714  Z M 10.3325892857143 2.296875  L 12 8.14285714285714  L 12 11.5714285714286  C 12 11.6875  11.9575892857143 11.7879464285714  11.8727678571429 11.8727678571429  C 11.7879464285714 11.9575892857143  11.6875 12  11.5714285714286 12  L 8.14285714285714 12  C 8.02678571428572 12  7.92633928571429 11.9575892857143  7.84151785714286 11.8727678571429  C 7.75669642857143 11.7879464285714  7.71428571428572 11.6875  7.71428571428572 11.5714285714286  L 7.71428571428572 7.71428571428571  C 7.59821428571429 7.71428571428571  7.49776785714286 7.671875  7.41294642857143 7.58705357142857  C 7.328125 7.50223214285714  7.28571428571428 7.40178571428571  7.28571428571428 7.28571428571429  L 7.28571428571428 2.14285714285714  L 10.125 2.14285714285714  C 10.2321428571429 2.14285714285714  10.3013392857143 2.19419642857143  10.3325892857143 2.296875  Z M 4.86830357142857 0.0602678571428568  C 4.90848214285714 0.100446428571428  4.92857142857143 0.151785714285713  4.92857142857143 0.214285714285715  L 4.92857142857143 1.71428571428571  L 2.57142857142857 1.71428571428571  L 2.57142857142857 0.214285714285715  C 2.57142857142857 0.151785714285713  2.59151785714286 0.100446428571428  2.63169642857143 0.0602678571428568  C 2.671875 0.0200892857142851  2.72321428571429 0  2.78571428571429 0  L 4.71428571428571 0  C 4.77678571428571 0  4.828125 0.0200892857142851  4.86830357142857 0.0602678571428568  Z M 9.36830357142857 0.0602678571428568  C 9.40848214285714 0.100446428571428  9.42857142857143 0.151785714285713  9.42857142857143 0.214285714285715  L 9.42857142857143 1.71428571428571  L 7.07142857142857 1.71428571428571  L 7.07142857142857 0.214285714285715  C 7.07142857142857 0.151785714285713  7.09151785714286 0.100446428571428  7.13169642857143 0.0602678571428568  C 7.171875 0.0200892857142851  7.22321428571429 0  7.28571428571428 0  L 9.21428571428572 0  C 9.27678571428572 0  9.328125 0.0200892857142851  9.36830357142857 0.0602678571428568  Z " fill-rule="nonzero" fill="#ffffff" stroke="none" transform="matrix(1 0 0 1 1345 153 )" />
  </g>
</svg>