<?xml version="1.0" encoding="utf-8"?>
<svg version="1.1" xmlns:xlink="http://www.w3.org/1999/xlink" width="12px" height="12px" xmlns="http://www.w3.org/2000/svg">
  <g transform="matrix(1 0 0 1 -1317 -153 )">
    <path d="M 10.1481935088794 2.85294117647059  C 10.2853643600735 2.7156862745098  10.3539497856705 2.54901960784314  10.3539497856705 2.35294117647059  C 10.3539497856705 2.15686274509804  10.2853643600735 1.99019607843137  10.1481935088794 1.85294117647059  C 10.0110226576852 1.7156862745098  9.84445805266381 1.64705882352941  9.64849969381506 1.64705882352941  C 9.45254133496632 1.64705882352941  9.28597672994489 1.7156862745098  9.14880587875077 1.85294117647059  C 9.01163502755665 1.99019607843137  8.94304960195958 2.15686274509804  8.94304960195958 2.35294117647059  C 8.94304960195958 2.54901960784314  9.01163502755665 2.7156862745098  9.14880587875077 2.85294117647059  C 9.28597672994489 2.99019607843137  9.45254133496632 3.05882352941176  9.64849969381506 3.05882352941176  C 9.84445805266381 3.05882352941176  10.0110226576852 2.99019607843137  10.1481935088794 2.85294117647059  Z M 11.9265156154317 0.069852941176471  C 11.9755052051439 0.11642156862745  12 0.17156862745098  12 0.235294117647059  C 12 1.45588235294118  11.8150642988365 2.51102941176471  11.4451928965095 3.40073529411765  C 11.0753214941825 4.29044117647059  10.4543784445805 5.17401960784314  9.58236374770361 6.05147058823529  C 9.1855480710349 6.44362745098039  8.70789957134109 6.875  8.14941824862217 7.34558823529412  L 8.00244947948561 10.1323529411765  C 7.99265156154317 10.2107843137255  7.95345988977342 10.2745098039216  7.88487446417636 10.3235294117647  L 5.06307409675444 11.9705882352941  C 5.02878138395591 11.9901960784314  4.98958971218616 12  4.94549908144519 12  C 4.88671157379057 12  4.83037354562156 11.9779411764706  4.77648499693815 11.9338235294118  L 4.30618493570116 11.4632352941176  C 4.24249846907532 11.3946078431373  4.22290263319045 11.3161764705882  4.24739742804654 11.2279411764706  L 4.87201469687691 9.19852941176471  L 2.80710349050827 7.13235294117647  L 0.77893447642376 7.75735294117647  C 0.764237599510104 7.76225490196078  0.74219228413962 7.76470588235294  0.712798530312309 7.76470588235294  C 0.644213104715248 7.76470588235294  0.587875076546234 7.74264705882353  0.543784445805266 7.69852941176471  L 0.0734843845682792 7.22794117647059  C -0.00979791794243725 7.13480392156863  -0.0220453153704838 7.03921568627451  0.0367421922841396 6.94117647058823  L 1.68279240661359 4.11764705882353  C 1.73178199632578 4.04901960784314  1.79546846295162 4.00980392156863  1.87385180649112 4  L 4.6589099816289 3.85294117647059  C 5.12921004286589 3.29411764705882  5.56031843233313 2.81617647058824  5.95223515003062 2.41911764705882  C 6.87323943661972 1.50245098039216  7.75015309246785 0.870098039215686  8.58297611757502 0.522058823529411  C 9.41579914268218 0.174019607843137  10.4715248009798 0  11.7501530924679 0  C 11.8187385180649 0  11.8775260257195 0.0232843137254894  11.9265156154317 0.069852941176471  Z " fill-rule="nonzero" fill="#ffffff" stroke="none" transform="matrix(1 0 0 1 1317 153 )" />
  </g>
</svg>