<?xml version="1.0" encoding="utf-8"?>
<svg version="1.1" xmlns:xlink="http://www.w3.org/1999/xlink" width="11px" height="12px" xmlns="http://www.w3.org/2000/svg">
  <g transform="matrix(1 0 0 1 -1331 -153 )">
    <path d="M 5.5 11.4642857142857  C 5.57051282051282 11.4642857142857  5.60576923076923 11.4285714285714  5.60576923076923 11.3571428571429  C 5.60576923076923 11.2857142857143  5.57051282051282 11.25  5.5 11.25  C 5.23998397435897 11.25  5.01632612179487 11.1551339285714  4.82902644230769 10.9654017857143  C 4.64172676282051 10.7756696428571  4.54807692307692 10.5491071428571  4.54807692307692 10.2857142857143  C 4.54807692307692 10.2142857142857  4.51282051282051 10.1785714285714  4.44230769230769 10.1785714285714  C 4.37179487179487 10.1785714285714  4.33653846153846 10.2142857142857  4.33653846153846 10.2857142857143  C 4.33653846153846 10.6116071428571  4.45002003205128 10.8895089285714  4.67698317307692 11.1194196428571  C 4.90394631410256 11.3493303571429  5.17828525641026 11.4642857142857  5.5 11.4642857142857  Z M 10.3984375 8.83928571428571  C 10.5791266025641 9.04464285714286  10.7796474358974 9.24107142857143  11 9.42857142857143  C 11 9.66071428571428  10.916266025641 9.86160714285714  10.7487980769231 10.03125  C 10.5813301282051 10.2008928571429  10.3830128205128 10.2857142857143  10.1538461538462 10.2857142857143  L 7.19230769230769 10.2857142857143  C 7.19230769230769 10.7589285714286  7.02704326923077 11.1629464285714  6.69651442307692 11.4977678571429  C 6.36598557692308 11.8325892857143  5.96714743589744 12  5.5 12  C 5.03285256410256 12  4.63401442307692 11.8325892857143  4.30348557692308 11.4977678571429  C 3.97295673076923 11.1629464285714  3.80769230769231 10.7589285714286  3.80769230769231 10.2857142857143  L 0.846153846153846 10.2857142857143  C 0.61698717948718 10.2857142857143  0.418669871794872 10.2008928571429  0.251201923076923 10.03125  C 0.0837339743589744 9.86160714285714  0 9.66071428571428  0 9.42857142857143  C 0.220352564102564 9.24107142857143  0.420873397435898 9.04464285714286  0.6015625 8.83928571428571  C 0.782251602564103 8.63392857142857  0.969551282051282 8.3671875  1.16346153846154 8.0390625  C 1.3573717948718 7.7109375  1.52153445512821 7.35714285714286  1.65594951923077 6.97767857142857  C 1.79036458333333 6.59821428571429  1.90054086538462 6.13839285714286  1.98647836538462 5.59821428571428  C 2.07241586538462 5.05803571428571  2.11538461538462 4.47767857142857  2.11538461538462 3.85714285714286  C 2.11538461538462 3.17857142857143  2.37319711538462 2.54799107142857  2.88882211538462 1.96540178571429  C 3.40444711538462 1.3828125  4.08092948717949 1.02901785714286  4.91826923076923 0.904017857142857  C 4.88301282051282 0.819196428571427  4.86538461538462 0.732142857142857  4.86538461538462 0.642857142857143  C 4.86538461538462 0.464285714285714  4.92708333333333 0.3125  5.05048076923077 0.1875  C 5.17387820512821 0.0625000000000004  5.32371794871795 0  5.5 0  C 5.67628205128205 0  5.8261217948718 0.0625000000000004  5.94951923076923 0.1875  C 6.07291666666667 0.3125  6.13461538461539 0.464285714285714  6.13461538461539 0.642857142857143  C 6.13461538461539 0.732142857142857  6.11698717948718 0.819196428571427  6.08173076923077 0.904017857142857  C 6.91907051282051 1.02901785714286  7.59555288461539 1.3828125  8.11117788461539 1.96540178571429  C 8.62680288461539 2.54799107142857  8.88461538461539 3.17857142857143  8.88461538461539 3.85714285714286  C 8.88461538461539 4.47767857142857  8.92758413461539 5.05803571428571  9.01352163461539 5.59821428571428  C 9.09945913461539 6.13839285714286  9.20963541666667 6.59821428571429  9.34405048076923 6.97767857142857  C 9.4784655448718 7.35714285714286  9.6426282051282 7.7109375  9.83653846153846 8.0390625  C 10.0304487179487 8.3671875  10.2177483974359 8.63392857142857  10.3984375 8.83928571428571  Z " fill-rule="nonzero" fill="#ffffff" stroke="none" transform="matrix(1 0 0 1 1331 153 )" />
  </g>
</svg>