<?xml version="1.0" encoding="utf-8"?>
<svg version="1.1" xmlns:xlink="http://www.w3.org/1999/xlink" width="12px" height="12px" xmlns="http://www.w3.org/2000/svg">
  <g transform="matrix(1 0 0 1 -341 -145 )">
    <path d="M 6 11.4642857142857  C 6.07692307692308 11.4642857142857  6.11538461538462 11.4285714285714  6.11538461538462 11.3571428571429  C 6.11538461538462 11.2857142857143  6.07692307692308 11.25  6 11.25  C 5.71634615384615 11.25  5.47235576923077 11.1551339285714  5.26802884615385 10.9654017857143  C 5.06370192307692 10.7756696428571  4.96153846153846 10.5491071428571  4.96153846153846 10.2857142857143  C 4.96153846153846 10.2142857142857  4.92307692307692 10.1785714285714  4.84615384615385 10.1785714285714  C 4.76923076923077 10.1785714285714  4.73076923076923 10.2142857142857  4.73076923076923 10.2857142857143  C 4.73076923076923 10.6116071428571  4.85456730769231 10.8895089285714  5.10216346153846 11.1194196428571  C 5.34975961538462 11.3493303571429  5.64903846153846 11.4642857142857  6 11.4642857142857  Z M 11.34375 8.83928571428571  C 11.5408653846154 9.04464285714286  11.7596153846154 9.24107142857143  12 9.42857142857143  C 12 9.66071428571428  11.9086538461538 9.86160714285714  11.7259615384615 10.03125  C 11.5432692307692 10.2008928571429  11.3269230769231 10.2857142857143  11.0769230769231 10.2857142857143  L 7.84615384615385 10.2857142857143  C 7.84615384615385 10.7589285714286  7.66586538461539 11.1629464285714  7.30528846153846 11.4977678571429  C 6.94471153846154 11.8325892857143  6.50961538461539 12  6 12  C 5.49038461538462 12  5.05528846153846 11.8325892857143  4.69471153846154 11.4977678571429  C 4.33413461538462 11.1629464285714  4.15384615384615 10.7589285714286  4.15384615384615 10.2857142857143  L 0.923076923076923 10.2857142857143  C 0.673076923076923 10.2857142857143  0.456730769230769 10.2008928571429  0.274038461538462 10.03125  C 0.0913461538461539 9.86160714285714  0 9.66071428571428  0 9.42857142857143  C 0.240384615384615 9.24107142857143  0.459134615384616 9.04464285714286  0.65625 8.83928571428571  C 0.853365384615385 8.63392857142857  1.05769230769231 8.3671875  1.26923076923077 8.0390625  C 1.48076923076923 7.7109375  1.65985576923077 7.35714285714286  1.80649038461538 6.97767857142857  C 1.953125 6.59821428571429  2.07331730769231 6.13839285714286  2.16706730769231 5.59821428571428  C 2.26081730769231 5.05803571428571  2.30769230769231 4.47767857142857  2.30769230769231 3.85714285714286  C 2.30769230769231 3.17857142857143  2.58894230769231 2.54799107142857  3.15144230769231 1.96540178571429  C 3.71394230769231 1.3828125  4.45192307692308 1.02901785714286  5.36538461538462 0.904017857142857  C 5.32692307692308 0.819196428571427  5.30769230769231 0.732142857142857  5.30769230769231 0.642857142857143  C 5.30769230769231 0.464285714285714  5.375 0.3125  5.50961538461538 0.1875  C 5.64423076923077 0.0625000000000004  5.80769230769231 0  6 0  C 6.19230769230769 0  6.35576923076923 0.0625000000000004  6.49038461538462 0.1875  C 6.625 0.3125  6.69230769230769 0.464285714285714  6.69230769230769 0.642857142857143  C 6.69230769230769 0.732142857142857  6.67307692307692 0.819196428571427  6.63461538461539 0.904017857142857  C 7.54807692307692 1.02901785714286  8.28605769230769 1.3828125  8.84855769230769 1.96540178571429  C 9.41105769230769 2.54799107142857  9.69230769230769 3.17857142857143  9.69230769230769 3.85714285714286  C 9.69230769230769 4.47767857142857  9.73918269230769 5.05803571428571  9.83293269230769 5.59821428571428  C 9.92668269230769 6.13839285714286  10.046875 6.59821428571429  10.1935096153846 6.97767857142857  C 10.3401442307692 7.35714285714286  10.5192307692308 7.7109375  10.7307692307692 8.0390625  C 10.9423076923077 8.3671875  11.1466346153846 8.63392857142857  11.34375 8.83928571428571  Z " fill-rule="nonzero" fill="#ffffff" stroke="none" transform="matrix(1 0 0 1 341 145 )" />
  </g>
</svg>