<?xml version="1.0" encoding="utf-8"?>
<svg version="1.1" xmlns:xlink="http://www.w3.org/1999/xlink" width="13px" height="12px" xmlns="http://www.w3.org/2000/svg">
  <g transform="matrix(1 0 0 1 -357 -145 )">
    <path d="M 2.03125 2.14285714285714  L 5.10714285714286 2.14285714285714  L 5.10714285714286 7.28571428571429  C 5.10714285714286 7.40178571428571  5.06119791666667 7.50223214285714  4.96930803571429 7.58705357142857  C 4.87741815476191 7.671875  4.76860119047619 7.71428571428571  4.64285714285714 7.71428571428571  L 4.64285714285714 11.5714285714286  C 4.64285714285714 11.6875  4.59691220238095 11.7879464285714  4.50502232142857 11.8727678571429  C 4.41313244047619 11.9575892857143  4.30431547619048 12  4.17857142857143 12  L 0.464285714285714 12  C 0.338541666666667 12  0.229724702380952 11.9575892857143  0.137834821428571 11.8727678571429  C 0.0459449404761905 11.7879464285714  0 11.6875  0 11.5714285714286  L 0 8.14285714285714  L 1.80636160714286 2.296875  C 1.84021577380952 2.19419642857143  1.91517857142857 2.14285714285714  2.03125 2.14285714285714  Z M 5.57142857142857 2.14285714285714  L 7.42857142857143 2.14285714285714  L 7.42857142857143 6.85714285714286  L 5.57142857142857 6.85714285714286  L 5.57142857142857 2.14285714285714  Z M 11.1936383928571 2.296875  L 13 8.14285714285714  L 13 11.5714285714286  C 13 11.6875  12.9540550595238 11.7879464285714  12.8621651785714 11.8727678571429  C 12.770275297619 11.9575892857143  12.6614583333333 12  12.5357142857143 12  L 8.82142857142857 12  C 8.69568452380952 12  8.58686755952381 11.9575892857143  8.49497767857143 11.8727678571429  C 8.40308779761905 11.7879464285714  8.35714285714286 11.6875  8.35714285714286 11.5714285714286  L 8.35714285714286 7.71428571428571  C 8.23139880952381 7.71428571428571  8.12258184523809 7.671875  8.03069196428571 7.58705357142857  C 7.93880208333333 7.50223214285714  7.89285714285714 7.40178571428571  7.89285714285714 7.28571428571429  L 7.89285714285714 2.14285714285714  L 10.96875 2.14285714285714  C 11.0848214285714 2.14285714285714  11.1597842261905 2.19419642857143  11.1936383928571 2.296875  Z M 5.27399553571429 0.0602678571428568  C 5.31752232142857 0.100446428571428  5.33928571428571 0.151785714285713  5.33928571428571 0.214285714285715  L 5.33928571428571 1.71428571428571  L 2.78571428571429 1.71428571428571  L 2.78571428571429 0.214285714285715  C 2.78571428571429 0.151785714285713  2.80747767857143 0.100446428571428  2.85100446428571 0.0602678571428568  C 2.89453125 0.0200892857142851  2.95014880952381 0  3.01785714285714 0  L 5.10714285714286 0  C 5.17485119047619 0  5.23046875 0.0200892857142851  5.27399553571429 0.0602678571428568  Z M 10.1489955357143 0.0602678571428568  C 10.1925223214286 0.100446428571428  10.2142857142857 0.151785714285713  10.2142857142857 0.214285714285715  L 10.2142857142857 1.71428571428571  L 7.66071428571429 1.71428571428571  L 7.66071428571429 0.214285714285715  C 7.66071428571429 0.151785714285713  7.68247767857143 0.100446428571428  7.72600446428571 0.0602678571428568  C 7.76953125 0.0200892857142851  7.82514880952381 0  7.89285714285714 0  L 9.98214285714286 0  C 10.0498511904762 0  10.10546875 0.0200892857142851  10.1489955357143 0.0602678571428568  Z " fill-rule="nonzero" fill="#ffffff" stroke="none" transform="matrix(1 0 0 1 357 145 )" />
  </g>
</svg>