<?xml version="1.0" encoding="utf-8"?>
<svg version="1.1" xmlns:xlink="http://www.w3.org/1999/xlink" width="15px" height="12px" xmlns="http://www.w3.org/2000/svg">
  <g transform="matrix(1 0 0 1 -384 -145 )">
    <path d="M 2.06752232142857 10.0703125  C 2.11774553571429 10.1171875  2.14285714285714 10.1770833333333  2.14285714285714 10.25  L 2.14285714285714 11.75  C 2.14285714285714 11.8229166666667  2.11774553571429 11.8828125  2.06752232142857 11.9296875  C 2.01729910714286 11.9765625  1.953125 12  1.875 12  L 0.267857142857143 12  C 0.189732142857143 12  0.125558035714286 11.9765625  0.0753348214285714 11.9296875  C 0.0251116071428571 11.8828125  0 11.8229166666667  0 11.75  L 0 10.25  C 0 10.1770833333333  0.0251116071428571 10.1171875  0.0753348214285714 10.0703125  C 0.125558035714286 10.0234375  0.189732142857143 10  0.267857142857143 10  L 1.875 10  C 1.953125 10  2.01729910714286 10.0234375  2.06752232142857 10.0703125  Z M 5.28180803571429 9.0703125  C 5.33203125 9.1171875  5.35714285714286 9.17708333333333  5.35714285714286 9.25  L 5.35714285714286 11.75  C 5.35714285714286 11.8229166666667  5.33203125 11.8828125  5.28180803571429 11.9296875  C 5.23158482142857 11.9765625  5.16741071428571 12  5.08928571428571 12  L 3.48214285714286 12  C 3.40401785714286 12  3.33984375 11.9765625  3.28962053571429 11.9296875  C 3.23939732142857 11.8828125  3.21428571428571 11.8229166666667  3.21428571428571 11.75  L 3.21428571428571 9.25  C 3.21428571428571 9.17708333333333  3.23939732142857 9.1171875  3.28962053571429 9.0703125  C 3.33984375 9.0234375  3.40401785714286 9  3.48214285714286 9  L 5.08928571428571 9  C 5.16741071428571 9  5.23158482142857 9.0234375  5.28180803571429 9.0703125  Z M 8.49609375 7.0703125  C 8.54631696428572 7.1171875  8.57142857142857 7.17708333333333  8.57142857142857 7.25  L 8.57142857142857 11.75  C 8.57142857142857 11.8229166666667  8.54631696428572 11.8828125  8.49609375 11.9296875  C 8.44587053571428 11.9765625  8.38169642857143 12  8.30357142857143 12  L 6.69642857142857 12  C 6.61830357142857 12  6.55412946428572 11.9765625  6.50390625 11.9296875  C 6.45368303571429 11.8828125  6.42857142857143 11.8229166666667  6.42857142857143 11.75  L 6.42857142857143 7.25  C 6.42857142857143 7.17708333333333  6.45368303571429 7.1171875  6.50390625 7.0703125  C 6.55412946428572 7.0234375  6.61830357142857 7  6.69642857142857 7  L 8.30357142857143 7  C 8.38169642857143 7  8.44587053571428 7.0234375  8.49609375 7.0703125  Z M 11.7103794642857 4.0703125  C 11.7606026785714 4.1171875  11.7857142857143 4.17708333333333  11.7857142857143 4.25  L 11.7857142857143 11.75  C 11.7857142857143 11.8229166666667  11.7606026785714 11.8828125  11.7103794642857 11.9296875  C 11.66015625 11.9765625  11.5959821428571 12  11.5178571428571 12  L 9.91071428571428 12  C 9.83258928571429 12  9.76841517857143 11.9765625  9.71819196428572 11.9296875  C 9.66796875 11.8828125  9.64285714285714 11.8229166666667  9.64285714285714 11.75  L 9.64285714285714 4.25  C 9.64285714285714 4.17708333333333  9.66796875 4.1171875  9.71819196428572 4.0703125  C 9.76841517857143 4.0234375  9.83258928571429 4  9.91071428571428 4  L 11.5178571428571 4  C 11.5959821428571 4  11.66015625 4.0234375  11.7103794642857 4.0703125  Z M 14.9246651785714 0.0703125  C 14.9748883928571 0.1171875  15 0.177083333333332  15 0.25  L 15 11.75  C 15 11.8229166666667  14.9748883928571 11.8828125  14.9246651785714 11.9296875  C 14.8744419642857 11.9765625  14.8102678571429 12  14.7321428571429 12  L 13.125 12  C 13.046875 12  12.9827008928571 11.9765625  12.9324776785714 11.9296875  C 12.8822544642857 11.8828125  12.8571428571429 11.8229166666667  12.8571428571429 11.75  L 12.8571428571429 0.25  C 12.8571428571429 0.177083333333332  12.8822544642857 0.1171875  12.9324776785714 0.0703125  C 12.9827008928571 0.0234375  13.046875 0  13.125 0  L 14.7321428571429 0  C 14.8102678571429 0  14.8744419642857 0.0234375  14.9246651785714 0.0703125  Z " fill-rule="nonzero" fill="#ffffff" stroke="none" transform="matrix(1 0 0 1 384 145 )" />
  </g>
</svg>