<?xml version="1.0" encoding="utf-8"?>
<svg version="1.1" xmlns:xlink="http://www.w3.org/1999/xlink" width="13px" height="12px" xmlns="http://www.w3.org/2000/svg">
  <g transform="matrix(1 0 0 1 -326 -145 )">
    <path d="M 10.993876301286 2.85294117647059  C 11.1424780567463 2.7156862745098  11.2167789344764 2.54901960784314  11.2167789344764 2.35294117647059  C 11.2167789344764 2.15686274509804  11.1424780567463 1.99019607843137  10.993876301286 1.85294117647059  C 10.8452745458257 1.7156862745098  10.6648295570525 1.64705882352941  10.4525413349663 1.64705882352941  C 10.2402531128802 1.64705882352941  10.059808124107 1.7156862745098  9.91120636864666 1.85294117647059  C 9.76260461318637 1.99019607843137  9.68830373545621 2.15686274509804  9.68830373545621 2.35294117647059  C 9.68830373545621 2.54901960784314  9.76260461318637 2.7156862745098  9.91120636864666 2.85294117647059  C 10.059808124107 2.99019607843137  10.2402531128802 3.05882352941176  10.4525413349663 3.05882352941176  C 10.6648295570525 3.05882352941176  10.8452745458257 2.99019607843137  10.993876301286 2.85294117647059  Z M 12.9203919167177 0.069852941176471  C 12.9734639722392 0.11642156862745  13 0.17156862745098  13 0.235294117647059  C 13 1.45588235294118  12.7996529904062 2.51102941176471  12.3989589712186 3.40073529411765  C 11.998264952031 4.29044117647059  11.3255766482956 5.17401960784314  10.3808940600122 6.05147058823529  C 9.95101041028781 6.44362745098039  9.43355786895285 6.875  8.82853643600735 7.34558823529412  L 8.66932026944274 10.1323529411765  C 8.65870585833844 10.2107843137255  8.61624821392121 10.2745098039216  8.54194733619106 10.3235294117647  L 5.48499693815064 11.9705882352941  C 5.44784649928557 11.9901960784314  5.40538885486834 12  5.35762400489896 12  C 5.29393753827312 12  5.23290467442335 11.9779411764706  5.17452541334966 11.9338235294118  L 4.66503368034293 11.4632352941176  C 4.59604000816493 11.3946078431373  4.57481118595632 11.3161764705882  4.60134721371709 11.2279411764706  L 5.27801592161666 9.19852941176471  L 3.04102878138396 7.13235294117647  L 0.843845682792407 7.75735294117647  C 0.827924066135946 7.76225490196078  0.804041641151255 7.76470588235294  0.772198407838334 7.76470588235294  C 0.697897530108185 7.76470588235294  0.63686466625842 7.74264705882353  0.589099816289039 7.69852941176471  L 0.0796080832823025 7.22794117647059  C -0.010614411104307 7.13480392156863  -0.0238824249846908 7.03921568627451  0.0398040416411513 6.94117647058823  L 1.82302510716473 4.11764705882353  C 1.87609716268626 4.04901960784314  1.94509083486426 4.00980392156863  2.03000612369871 4  L 5.04715248009798 3.85294117647059  C 5.55664421310471 3.29411764705882  6.02367830169422 2.81617647058824  6.4482547458665 2.41911764705882  C 7.44600938967136 1.50245098039216  8.39599918350684 0.870098039215686  9.29822412737293 0.522058823529411  C 10.200449071239 0.174019607843137  11.3441518677281 0  12.7293325168402 0  C 12.8036333945703 0  12.8673198611962 0.0232843137254894  12.9203919167177 0.069852941176471  Z " fill-rule="nonzero" fill="#ffffff" stroke="none" transform="matrix(1 0 0 1 326 145 )" />
  </g>
</svg>