<?xml version="1.0" encoding="utf-8"?>
<svg version="1.1" xmlns:xlink="http://www.w3.org/1999/xlink" width="320px" height="47px" xmlns="http://www.w3.org/2000/svg">
  <defs>
    <mask fill="white" id="clip6">
      <path d="M 0 9  L 140.034263715647 9  C 145.300094169471 3.49196039683352  153.562425122405 0  163 0  C 172.437545144109 0  180.699853768859 3.49193839372515  185.965669052003 9  L 320 9  L 320 47  L 163.000047973958 47  L 0 47  L 0 9  Z " fill-rule="evenodd" />
    </mask>
  </defs>
  <g transform="matrix(1 0 0 1 -84 -659 )">
    <path d="M 0 9  L 140.034263715647 9  C 145.300094169471 3.49196039683352  153.562425122405 0  163 0  C 172.437545144109 0  180.699853768859 3.49193839372515  185.965669052003 9  L 320 9  L 320 47  L 163.000047973958 47  L 0 47  L 0 9  Z " fill-rule="nonzero" fill="#ffffff" stroke="none" transform="matrix(1 0 0 1 84 659 )" />
    <path d="M 0 9  L 140.034263715647 9  C 145.300094169471 3.49196039683352  153.562425122405 0  163 0  C 172.437545144109 0  180.699853768859 3.49193839372515  185.965669052003 9  L 320 9  L 320 47  L 163.000047973958 47  L 0 47  L 0 9  Z " stroke-width="2" stroke="#c8c8c8" fill="none" transform="matrix(1 0 0 1 84 659 )" mask="url(#clip6)" />
  </g>
</svg>