<?xml version="1.0" encoding="utf-8"?>
<svg version="1.1" xmlns:xlink="http://www.w3.org/1999/xlink" width="12px" height="11px" xmlns="http://www.w3.org/2000/svg">
  <g transform="matrix(1 0 0 1 -342 -147 )">
    <path d="M 6 10.5089285714286  C 6.07692307692308 10.5089285714286  6.11538461538462 10.4761904761905  6.11538461538462 10.4107142857143  C 6.11538461538462 10.3452380952381  6.07692307692308 10.3125  6 10.3125  C 5.71634615384615 10.3125  5.47235576923077 10.2255394345238  5.26802884615385 10.0516183035714  C 5.06370192307692 9.87769717261905  4.96153846153846 9.67001488095238  4.96153846153846 9.42857142857143  C 4.96153846153846 9.36309523809524  4.92307692307692 9.33035714285714  4.84615384615385 9.33035714285714  C 4.76923076923077 9.33035714285714  4.73076923076923 9.36309523809524  4.73076923076923 9.42857142857143  C 4.73076923076923 9.72730654761905  4.85456730769231 9.98204985119048  5.10216346153846 10.1928013392857  C 5.34975961538462 10.403552827381  5.64903846153846 10.5089285714286  6 10.5089285714286  Z M 11.34375 8.10267857142857  C 11.5408653846154 8.29092261904762  11.7596153846154 8.47098214285714  12 8.64285714285714  C 12 8.85565476190476  11.9086538461538 9.03980654761905  11.7259615384615 9.1953125  C 11.5432692307692 9.35081845238095  11.3269230769231 9.42857142857143  11.0769230769231 9.42857142857143  L 7.84615384615385 9.42857142857143  C 7.84615384615385 9.86235119047619  7.66586538461539 10.2327008928571  7.30528846153846 10.5396205357143  C 6.94471153846154 10.8465401785714  6.50961538461539 11  6 11  C 5.49038461538462 11  5.05528846153846 10.8465401785714  4.69471153846154 10.5396205357143  C 4.33413461538462 10.2327008928571  4.15384615384615 9.86235119047619  4.15384615384615 9.42857142857143  L 0.923076923076923 9.42857142857143  C 0.673076923076923 9.42857142857143  0.456730769230769 9.35081845238095  0.274038461538462 9.1953125  C 0.0913461538461539 9.03980654761905  0 8.85565476190476  0 8.64285714285714  C 0.240384615384615 8.47098214285714  0.459134615384616 8.29092261904762  0.65625 8.10267857142857  C 0.853365384615385 7.91443452380952  1.05769230769231 7.669921875  1.26923076923077 7.369140625  C 1.48076923076923 7.068359375  1.65985576923077 6.74404761904762  1.80649038461538 6.39620535714286  C 1.953125 6.04836309523809  2.07331730769231 5.62686011904762  2.16706730769231 5.13169642857143  C 2.26081730769231 4.63653273809524  2.30769230769231 4.10453869047619  2.30769230769231 3.53571428571429  C 2.30769230769231 2.91369047619048  2.58894230769231 2.33565848214286  3.15144230769231 1.80161830357143  C 3.71394230769231 1.267578125  4.45192307692308 0.943266369047618  5.36538461538462 0.828683035714285  C 5.32692307692308 0.750930059523809  5.30769230769231 0.671130952380952  5.30769230769231 0.589285714285715  C 5.30769230769231 0.425595238095238  5.375 0.286458333333333  5.50961538461538 0.171875  C 5.64423076923077 0.0572916666666671  5.80769230769231 0  6 0  C 6.19230769230769 0  6.35576923076923 0.0572916666666671  6.49038461538462 0.171875  C 6.625 0.286458333333333  6.69230769230769 0.425595238095238  6.69230769230769 0.589285714285715  C 6.69230769230769 0.671130952380952  6.67307692307692 0.750930059523809  6.63461538461539 0.828683035714285  C 7.54807692307692 0.943266369047618  8.28605769230769 1.267578125  8.84855769230769 1.80161830357143  C 9.41105769230769 2.33565848214286  9.69230769230769 2.91369047619048  9.69230769230769 3.53571428571429  C 9.69230769230769 4.10453869047619  9.73918269230769 4.63653273809524  9.83293269230769 5.13169642857143  C 9.92668269230769 5.62686011904762  10.046875 6.04836309523809  10.1935096153846 6.39620535714286  C 10.3401442307692 6.74404761904762  10.5192307692308 7.068359375  10.7307692307692 7.369140625  C 10.9423076923077 7.669921875  11.1466346153846 7.91443452380952  11.34375 8.10267857142857  Z " fill-rule="nonzero" fill="#ffffff" stroke="none" transform="matrix(1 0 0 1 342 147 )" />
  </g>
</svg>