<?xml version="1.0" encoding="utf-8"?>
<svg version="1.1" xmlns:xlink="http://www.w3.org/1999/xlink" width="13px" height="11px" xmlns="http://www.w3.org/2000/svg">
  <g transform="matrix(1 0 0 1 -357 -147 )">
    <path d="M 2.03125 1.96428571428571  L 5.10714285714286 1.96428571428571  L 5.10714285714286 6.67857142857143  C 5.10714285714286 6.78497023809524  5.06119791666667 6.87704613095238  4.96930803571429 6.95479910714286  C 4.87741815476191 7.03255208333333  4.76860119047619 7.07142857142857  4.64285714285714 7.07142857142857  L 4.64285714285714 10.6071428571429  C 4.64285714285714 10.7135416666667  4.59691220238095 10.8056175595238  4.50502232142857 10.8833705357143  C 4.41313244047619 10.9611235119048  4.30431547619048 11  4.17857142857143 11  L 0.464285714285714 11  C 0.338541666666667 11  0.229724702380952 10.9611235119048  0.137834821428571 10.8833705357143  C 0.0459449404761905 10.8056175595238  0 10.7135416666667  0 10.6071428571429  L 0 7.46428571428571  L 1.80636160714286 2.10546875  C 1.84021577380952 2.01134672619048  1.91517857142857 1.96428571428571  2.03125 1.96428571428571  Z M 5.57142857142857 1.96428571428571  L 7.42857142857143 1.96428571428571  L 7.42857142857143 6.28571428571429  L 5.57142857142857 6.28571428571429  L 5.57142857142857 1.96428571428571  Z M 11.1936383928571 2.10546875  L 13 7.46428571428571  L 13 10.6071428571429  C 13 10.7135416666667  12.9540550595238 10.8056175595238  12.8621651785714 10.8833705357143  C 12.770275297619 10.9611235119048  12.6614583333333 11  12.5357142857143 11  L 8.82142857142857 11  C 8.69568452380952 11  8.58686755952381 10.9611235119048  8.49497767857143 10.8833705357143  C 8.40308779761905 10.8056175595238  8.35714285714286 10.7135416666667  8.35714285714286 10.6071428571429  L 8.35714285714286 7.07142857142857  C 8.23139880952381 7.07142857142857  8.12258184523809 7.03255208333333  8.03069196428571 6.95479910714286  C 7.93880208333333 6.87704613095238  7.89285714285714 6.78497023809524  7.89285714285714 6.67857142857143  L 7.89285714285714 1.96428571428571  L 10.96875 1.96428571428571  C 11.0848214285714 1.96428571428571  11.1597842261905 2.01134672619048  11.1936383928571 2.10546875  Z M 5.27399553571429 0.0552455357142854  C 5.31752232142857 0.0920758928571427  5.33928571428571 0.139136904761904  5.33928571428571 0.196428571428572  L 5.33928571428571 1.57142857142857  L 2.78571428571429 1.57142857142857  L 2.78571428571429 0.196428571428572  C 2.78571428571429 0.139136904761904  2.80747767857143 0.0920758928571427  2.85100446428571 0.0552455357142854  C 2.89453125 0.018415178571428  2.95014880952381 0  3.01785714285714 0  L 5.10714285714286 0  C 5.17485119047619 0  5.23046875 0.018415178571428  5.27399553571429 0.0552455357142854  Z M 10.1489955357143 0.0552455357142854  C 10.1925223214286 0.0920758928571427  10.2142857142857 0.139136904761904  10.2142857142857 0.196428571428572  L 10.2142857142857 1.57142857142857  L 7.66071428571429 1.57142857142857  L 7.66071428571429 0.196428571428572  C 7.66071428571429 0.139136904761904  7.68247767857143 0.0920758928571427  7.72600446428571 0.0552455357142854  C 7.76953125 0.018415178571428  7.82514880952381 0  7.89285714285714 0  L 9.98214285714286 0  C 10.0498511904762 0  10.10546875 0.018415178571428  10.1489955357143 0.0552455357142854  Z " fill-rule="nonzero" fill="#ffffff" stroke="none" transform="matrix(1 0 0 1 357 147 )" />
  </g>
</svg>