<?xml version="1.0" encoding="utf-8"?>
<svg version="1.1" xmlns:xlink="http://www.w3.org/1999/xlink" width="15px" height="11px" xmlns="http://www.w3.org/2000/svg">
  <g transform="matrix(1 0 0 1 -385 -147 )">
    <path d="M 2.06752232142857 9.23111979166667  C 2.11774553571429 9.27408854166667  2.14285714285714 9.32899305555556  2.14285714285714 9.39583333333333  L 2.14285714285714 10.7708333333333  C 2.14285714285714 10.8376736111111  2.11774553571429 10.892578125  2.06752232142857 10.935546875  C 2.01729910714286 10.978515625  1.953125 11  1.875 11  L 0.267857142857143 11  C 0.189732142857143 11  0.125558035714286 10.978515625  0.0753348214285714 10.935546875  C 0.0251116071428571 10.892578125  0 10.8376736111111  0 10.7708333333333  L 0 9.39583333333333  C 0 9.32899305555556  0.0251116071428571 9.27408854166667  0.0753348214285714 9.23111979166667  C 0.125558035714286 9.18815104166667  0.189732142857143 9.16666666666667  0.267857142857143 9.16666666666667  L 1.875 9.16666666666667  C 1.953125 9.16666666666667  2.01729910714286 9.18815104166667  2.06752232142857 9.23111979166667  Z M 5.28180803571429 8.314453125  C 5.33203125 8.357421875  5.35714285714286 8.41232638888889  5.35714285714286 8.47916666666667  L 5.35714285714286 10.7708333333333  C 5.35714285714286 10.8376736111111  5.33203125 10.892578125  5.28180803571429 10.935546875  C 5.23158482142857 10.978515625  5.16741071428571 11  5.08928571428571 11  L 3.48214285714286 11  C 3.40401785714286 11  3.33984375 10.978515625  3.28962053571429 10.935546875  C 3.23939732142857 10.892578125  3.21428571428571 10.8376736111111  3.21428571428571 10.7708333333333  L 3.21428571428571 8.47916666666667  C 3.21428571428571 8.41232638888889  3.23939732142857 8.357421875  3.28962053571429 8.314453125  C 3.33984375 8.271484375  3.40401785714286 8.25  3.48214285714286 8.25  L 5.08928571428571 8.25  C 5.16741071428571 8.25  5.23158482142857 8.271484375  5.28180803571429 8.314453125  Z M 8.49609375 6.48111979166667  C 8.54631696428572 6.52408854166667  8.57142857142857 6.57899305555555  8.57142857142857 6.64583333333333  L 8.57142857142857 10.7708333333333  C 8.57142857142857 10.8376736111111  8.54631696428572 10.892578125  8.49609375 10.935546875  C 8.44587053571428 10.978515625  8.38169642857143 11  8.30357142857143 11  L 6.69642857142857 11  C 6.61830357142857 11  6.55412946428572 10.978515625  6.50390625 10.935546875  C 6.45368303571429 10.892578125  6.42857142857143 10.8376736111111  6.42857142857143 10.7708333333333  L 6.42857142857143 6.64583333333333  C 6.42857142857143 6.57899305555555  6.45368303571429 6.52408854166667  6.50390625 6.48111979166667  C 6.55412946428572 6.43815104166667  6.61830357142857 6.41666666666667  6.69642857142857 6.41666666666667  L 8.30357142857143 6.41666666666667  C 8.38169642857143 6.41666666666667  8.44587053571428 6.43815104166667  8.49609375 6.48111979166667  Z M 11.7103794642857 3.73111979166667  C 11.7606026785714 3.77408854166667  11.7857142857143 3.82899305555556  11.7857142857143 3.89583333333333  L 11.7857142857143 10.7708333333333  C 11.7857142857143 10.8376736111111  11.7606026785714 10.892578125  11.7103794642857 10.935546875  C 11.66015625 10.978515625  11.5959821428571 11  11.5178571428571 11  L 9.91071428571428 11  C 9.83258928571429 11  9.76841517857143 10.978515625  9.71819196428572 10.935546875  C 9.66796875 10.892578125  9.64285714285714 10.8376736111111  9.64285714285714 10.7708333333333  L 9.64285714285714 3.89583333333333  C 9.64285714285714 3.82899305555556  9.66796875 3.77408854166667  9.71819196428572 3.73111979166667  C 9.76841517857143 3.68815104166667  9.83258928571429 3.66666666666667  9.91071428571428 3.66666666666667  L 11.5178571428571 3.66666666666667  C 11.5959821428571 3.66666666666667  11.66015625 3.68815104166667  11.7103794642857 3.73111979166667  Z M 14.9246651785714 0.064453125  C 14.9748883928571 0.107421875  15 0.162326388888887  15 0.229166666666667  L 15 10.7708333333333  C 15 10.8376736111111  14.9748883928571 10.892578125  14.9246651785714 10.935546875  C 14.8744419642857 10.978515625  14.8102678571429 11  14.7321428571429 11  L 13.125 11  C 13.046875 11  12.9827008928571 10.978515625  12.9324776785714 10.935546875  C 12.8822544642857 10.892578125  12.8571428571429 10.8376736111111  12.8571428571429 10.7708333333333  L 12.8571428571429 0.229166666666667  C 12.8571428571429 0.162326388888887  12.8822544642857 0.107421875  12.9324776785714 0.064453125  C 12.9827008928571 0.021484375  13.046875 0  13.125 0  L 14.7321428571429 0  C 14.8102678571429 0  14.8744419642857 0.021484375  14.9246651785714 0.064453125  Z " fill-rule="nonzero" fill="#ffffff" stroke="none" transform="matrix(1 0 0 1 385 147 )" />
  </g>
</svg>