<?xml version="1.0" encoding="utf-8"?>
<svg version="1.1" xmlns:xlink="http://www.w3.org/1999/xlink" width="13px" height="11px" xmlns="http://www.w3.org/2000/svg">
  <g transform="matrix(1 0 0 1 -327 -147 )">
    <path d="M 10.993876301286 2.61519607843137  C 11.1424780567463 2.48937908496732  11.2167789344764 2.33660130718954  11.2167789344764 2.15686274509804  C 11.2167789344764 1.97712418300654  11.1424780567463 1.82434640522876  10.993876301286 1.69852941176471  C 10.8452745458257 1.57271241830065  10.6648295570525 1.50980392156863  10.4525413349663 1.50980392156863  C 10.2402531128802 1.50980392156863  10.059808124107 1.57271241830065  9.91120636864666 1.69852941176471  C 9.76260461318637 1.82434640522876  9.68830373545621 1.97712418300654  9.68830373545621 2.15686274509804  C 9.68830373545621 2.33660130718954  9.76260461318637 2.48937908496732  9.91120636864666 2.61519607843137  C 10.059808124107 2.74101307189542  10.2402531128802 2.80392156862745  10.4525413349663 2.80392156862745  C 10.6648295570525 2.80392156862745  10.8452745458257 2.74101307189542  10.993876301286 2.61519607843137  Z M 12.9203919167177 0.0640318627450984  C 12.9734639722392 0.106719771241829  13 0.157271241830065  13 0.215686274509804  C 13 1.33455882352941  12.7996529904062 2.30177696078431  12.3989589712186 3.11734068627451  C 11.998264952031 3.93290441176471  11.3255766482956 4.74285130718954  10.3808940600122 5.54718137254902  C 9.95101041028781 5.90665849673203  9.43355786895285 6.30208333333333  8.82853643600735 6.73345588235294  L 8.66932026944274 9.28799019607843  C 8.65870585833844 9.35988562091503  8.61624821392121 9.41830065359477  8.54194733619106 9.46323529411765  L 5.48499693815064 10.9730392156863  C 5.44784649928557 10.9910130718954  5.40538885486834 11  5.35762400489896 11  C 5.29393753827312 11  5.23290467442335 10.9797794117647  5.17452541334966 10.9393382352941  L 4.66503368034293 10.5079656862745  C 4.59604000816493 10.4450571895425  4.57481118595632 10.3731617647059  4.60134721371709 10.2922794117647  L 5.27801592161666 8.43198529411765  L 3.04102878138396 6.53799019607843  L 0.843845682792407 7.1109068627451  C 0.827924066135946 7.11540032679739  0.804041641151255 7.11764705882353  0.772198407838334 7.11764705882353  C 0.697897530108185 7.11764705882353  0.63686466625842 7.09742647058824  0.589099816289039 7.05698529411765  L 0.0796080832823025 6.62561274509804  C -0.010614411104307 6.54023692810457  -0.0238824249846908 6.45261437908497  0.0398040416411513 6.36274509803922  L 1.82302510716473 3.77450980392157  C 1.87609716268626 3.71160130718954  1.94509083486426 3.67565359477124  2.03000612369871 3.66666666666667  L 5.04715248009798 3.53186274509804  C 5.55664421310471 3.01960784313726  6.02367830169422 2.58149509803922  6.4482547458665 2.21752450980392  C 7.44600938967136 1.37724673202614  8.39599918350684 0.797589869281045  9.29822412737293 0.478553921568627  C 10.200449071239 0.159517973856209  11.3441518677281 0  12.7293325168402 0  C 12.8036333945703 0  12.8673198611962 0.0213439542483653  12.9203919167177 0.0640318627450984  Z " fill-rule="nonzero" fill="#ffffff" stroke="none" transform="matrix(1 0 0 1 327 147 )" />
  </g>
</svg>