<?xml version="1.0" encoding="utf-8"?>
<svg version="1.1" xmlns:xlink="http://www.w3.org/1999/xlink" width="49px" height="49px" xmlns="http://www.w3.org/2000/svg">
  <g transform="matrix(1 0 0 1 -102 -184 )">
    <path d="M 126.5 184  C 140.22 184  151 194.78  151 208.5  C 151 222.22  140.22 233  126.5 233  C 112.78 233  102 222.22  102 208.5  C 102 194.78  112.78 184  126.5 184  Z " fill-rule="nonzero" fill="#ffffff" stroke="none" />
    <path d="M 126.5 184.5  C 139.94 184.5  150.5 195.06  150.5 208.5  C 150.5 221.94  139.94 232.5  126.5 232.5  C 113.06 232.5  102.5 221.94  102.5 208.5  C 102.5 195.06  113.06 184.5  126.5 184.5  Z " stroke-width="1" stroke="#ffffff" fill="none" />
  </g>
</svg>