<?xml version="1.0" encoding="utf-8"?>
<svg version="1.1" xmlns:xlink="http://www.w3.org/1999/xlink" width="10px" height="10px" xmlns="http://www.w3.org/2000/svg">
  <g transform="matrix(1 0 0 1 -165 -263 )">
    <path d="M 170 263  C 172.8 263  175 265.2  175 268  C 175 270.8  172.8 273  170 273  C 167.2 273  165 270.8  165 268  C 165 265.2  167.2 263  170 263  Z " fill-rule="nonzero" fill="#ff0000" stroke="none" />
    <path d="M 170 263.5  C 172.52 263.5  174.5 265.48  174.5 268  C 174.5 270.52  172.52 272.5  170 272.5  C 167.48 272.5  165.5 270.52  165.5 268  C 165.5 265.48  167.48 263.5  170 263.5  Z " stroke-width="1" stroke="#ffffff" fill="none" />
  </g>
</svg>