<?xml version="1.0" encoding="utf-8"?>
<svg version="1.1" xmlns:xlink="http://www.w3.org/1999/xlink" width="49px" height="49px" xmlns="http://www.w3.org/2000/svg">
  <g transform="matrix(1 0 0 1 -111 -1333 )">
    <path d="M 135.5 1333  C 149.22 1333  160 1343.78  160 1357.5  C 160 1371.22  149.22 1382  135.5 1382  C 121.78 1382  111 1371.22  111 1357.5  C 111 1343.78  121.78 1333  135.5 1333  Z " fill-rule="nonzero" fill="#bfca00" stroke="none" />
    <path d="M 135.5 1333.5  C 148.94 1333.5  159.5 1344.06  159.5 1357.5  C 159.5 1370.94  148.94 1381.5  135.5 1381.5  C 122.06 1381.5  111.5 1370.94  111.5 1357.5  C 111.5 1344.06  122.06 1333.5  135.5 1333.5  Z " stroke-width="1" stroke="#ffffff" fill="none" />
  </g>
</svg>