<?xml version="1.0" encoding="utf-8"?>
<svg version="1.1" xmlns:xlink="http://www.w3.org/1999/xlink" width="49px" height="49px" xmlns="http://www.w3.org/2000/svg">
  <g transform="matrix(1 0 0 1 -111 -1393 )">
    <path d="M 135.5 1393  C 149.22 1393  160 1403.78  160 1417.5  C 160 1431.22  149.22 1442  135.5 1442  C 121.78 1442  111 1431.22  111 1417.5  C 111 1403.78  121.78 1393  135.5 1393  Z " fill-rule="nonzero" fill="#ff2121" stroke="none" />
    <path d="M 135.5 1393.5  C 148.94 1393.5  159.5 1404.06  159.5 1417.5  C 159.5 1430.94  148.94 1441.5  135.5 1441.5  C 122.06 1441.5  111.5 1430.94  111.5 1417.5  C 111.5 1404.06  122.06 1393.5  135.5 1393.5  Z " stroke-width="1" stroke="#ffffff" fill="none" />
  </g>
</svg>