<?xml version="1.0" encoding="utf-8"?>
<svg version="1.1" xmlns:xlink="http://www.w3.org/1999/xlink" width="32px" height="32px" xmlns="http://www.w3.org/2000/svg">
  <g transform="matrix(1 0 0 1 -756 -1111 )">
    <path d="M 22.3571428571429 28.1517857142857  C 24.3214285714286 27.1101190476191  25.9345238095238 25.6964285714286  27.1964285714286 23.9107142857143  C 26.9345238095238 22.0654761904762  26.4136904761905 20.5327380952381  25.6339285714286 19.3125  C 24.8541666666667 18.0922619047619  23.7559523809524 17.3869047619048  22.3392857142857 17.1964285714286  C 21.5416666666667 18.0773809523809  20.5922619047619 18.7648809523809  19.4910714285714 19.2589285714286  C 18.389880952381 19.7529761904762  17.2261904761905 20  16 20  C 14.7738095238095 20  13.610119047619 19.7529761904762  12.5089285714286 19.2589285714286  C 11.4077380952381 18.7648809523809  10.4583333333333 18.0773809523809  9.66071428571429 17.1964285714286  C 8.24404761904762 17.3869047619048  7.14583333333333 18.0922619047619  6.36607142857143 19.3125  C 5.58630952380952 20.5327380952381  5.06547619047619 22.0654761904762  4.80357142857143 23.9107142857143  C 6.06547619047619 25.6964285714286  7.67857142857143 27.1101190476191  9.64285714285714 28.1517857142857  C 11.6071428571429 29.1934523809524  13.7261904761905 29.7142857142857  16 29.7142857142857  C 18.2738095238095 29.7142857142857  20.3928571428571 29.1934523809524  22.3571428571429 28.1517857142857  Z M 20.8482142857143 16.2767857142857  C 22.1875 14.9375  22.8571428571429 13.3214285714286  22.8571428571429 11.4285714285714  C 22.8571428571429 9.53571428571428  22.1875 7.91964285714286  20.8482142857143 6.58035714285714  C 19.5089285714286 5.24107142857143  17.8928571428571 4.57142857142857  16 4.57142857142857  C 14.1071428571429 4.57142857142857  12.4910714285714 5.24107142857143  11.1517857142857 6.58035714285714  C 9.8125 7.91964285714286  9.14285714285714 9.53571428571428  9.14285714285714 11.4285714285714  C 9.14285714285714 13.3214285714286  9.8125 14.9375  11.1517857142857 16.2767857142857  C 12.4910714285714 17.6160714285714  14.1071428571429 18.2857142857143  16 18.2857142857143  C 17.8928571428571 18.2857142857143  19.5089285714286 17.6160714285714  20.8482142857143 16.2767857142857  Z M 30.7321428571429 9.78571428571428  C 31.577380952381 11.7619047619048  32 13.8333333333333  32 16  C 32 18.1666666666667  31.577380952381 20.235119047619  30.7321428571429 22.2053571428571  C 29.8869047619048 24.1755952380952  28.7529761904762 25.8779761904762  27.3303571428571 27.3125  C 25.9077380952381 28.7470238095238  24.2083333333333 29.8869047619048  22.2321428571429 30.7321428571429  C 20.2559523809524 31.577380952381  18.1785714285714 32  16 32  C 13.8333333333333 32  11.7619047619048 31.577380952381  9.78571428571429 30.7321428571429  C 7.80952380952381 29.8869047619048  6.10714285714286 28.75  4.67857142857143 27.3214285714286  C 3.25 25.8928571428571  2.11309523809524 24.1904761904762  1.26785714285714 22.2142857142857  C 0.422619047619048 20.2380952380952  0 18.1666666666667  0 16  C 0 13.8333333333333  0.422619047619048 11.7619047619048  1.26785714285714 9.78571428571428  C 2.11309523809524 7.80952380952381  3.25 6.10714285714286  4.67857142857143 4.67857142857143  C 6.10714285714286 3.25  7.80952380952381 2.11309523809524  9.78571428571429 1.26785714285714  C 11.7619047619048 0.422619047619047  13.8333333333333 0  16 0  C 18.1666666666667 0  20.2380952380952 0.422619047619047  22.2142857142857 1.26785714285714  C 24.1904761904762 2.11309523809524  25.8928571428571 3.25  27.3214285714286 4.67857142857143  C 28.75 6.10714285714286  29.8869047619048 7.80952380952381  30.7321428571429 9.78571428571428  Z " fill-rule="nonzero" fill="#ff0000" stroke="none" transform="matrix(1 0 0 1 756 1111 )" />
  </g>
</svg>