<?xml version="1.0" encoding="utf-8"?>
<svg version="1.1" xmlns:xlink="http://www.w3.org/1999/xlink" width="25px" height="25px" xmlns="http://www.w3.org/2000/svg">
  <defs>
    <mask fill="white" id="clip8">
      <path d="M 11 0  C 17.16 0  22 4.84  22 11  C 22 17.16  17.16 22  11 22  C 4.83999999999999 22  0 17.16  0 11  C 0 4.84  4.83999999999999 0  11 0  Z " fill-rule="evenodd" />
    </mask>
  </defs>
  <g transform="matrix(1 0 0 1 -894 -286 )">
    <path d="M 11 0  C 17.16 0  22 4.84  22 11  C 22 17.16  17.16 22  11 22  C 4.83999999999999 22  0 17.16  0 11  C 0 4.84  4.83999999999999 0  11 0  Z " fill-rule="nonzero" fill="#ffffff" stroke="none" transform="matrix(1 0 0 1 895 287 )" />
    <path d="M 11 0  C 17.16 0  22 4.84  22 11  C 22 17.16  17.16 22  11 22  C 4.83999999999999 22  0 17.16  0 11  C 0 4.84  4.83999999999999 0  11 0  Z " stroke-width="4" stroke="#ff0000" fill="none" transform="matrix(1 0 0 1 895 287 )" mask="url(#clip8)" />
    <path d="M 11 0  L 11 22  M 0 11  L 22 11  " stroke-width="2" stroke="#ff0000" fill="none" transform="matrix(1 0 0 1 895 287 )" mask="url(#clip8)" />
  </g>
</svg>