<?xml version="1.0" encoding="utf-8"?>
<svg version="1.1" xmlns:xlink="http://www.w3.org/1999/xlink" width="34px" height="34px" xmlns="http://www.w3.org/2000/svg">
  <g transform="matrix(1 0 0 1 -1052 -248 )">
    <path d="M 1069 248  C 1078.52 248  1086 255.48  1086 265  C 1086 274.52  1078.52 282  1069 282  C 1059.48 282  1052 274.52  1052 265  C 1052 255.48  1059.48 248  1069 248  Z " fill-rule="nonzero" fill="#ffffff" stroke="none" />
    <path d="M 1069 248.5  C 1078.24 248.5  1085.5 255.76  1085.5 265  C 1085.5 274.24  1078.24 281.5  1069 281.5  C 1059.76 281.5  1052.5 274.24  1052.5 265  C 1052.5 255.76  1059.76 248.5  1069 248.5  Z " stroke-width="1" stroke="#797979" fill="none" />
  </g>
</svg>