<?xml version="1.0" encoding="utf-8"?>
<svg version="1.1" xmlns:xlink="http://www.w3.org/1999/xlink" width="20px" height="20px" preserveAspectRatio="xMinYMid meet" viewBox="1424 427  20 18" xmlns="http://www.w3.org/2000/svg">
  <path d="M 388 208  L 565 208  A 5 5 0 0 0 570 203 L 570 25  A 5 5 0 0 1 575 20 L 1405 20  A 5 5 0 0 1 1410 25 L 1410 431  A 5 5 0 0 0 1415 436 L 1434 436  " stroke-width="2" stroke="#0099ff" fill="none" />
  <path d="M 1428.89289321881 431.707106781187  L 1433.18578643763 436  L 1428.89289321881 440.292893218813  L 1430.30710678119 441.707106781187  L 1435.30710678119 436.707106781187  L 1436.01421356237 436  L 1435.30710678119 435.292893218813  L 1430.30710678119 430.292893218813  L 1428.89289321881 431.707106781187  Z " fill-rule="nonzero" fill="#0099ff" stroke="none" />
</svg>