<?xml version="1.0" encoding="utf-8"?>
<svg version="1.1" xmlns:xlink="http://www.w3.org/1999/xlink" width="20px" height="20px" preserveAspectRatio="xMinYMid meet" viewBox="471 227  20 18" xmlns="http://www.w3.org/2000/svg">
  <path d="M 227 470  L 227 425  A 5 5 0 0 0 222 420 L 75 420  A 5 5 0 0 1 70 415 L 70 135  A 5 5 0 0 1 75 130 L 465 130  A 5 5 0 0 1 470 135 L 470 231  A 5 5 0 0 0 475 236 L 481 236  " stroke-width="2" stroke="#0099ff" fill="none" />
  <path d="M 475.892893218813 231.707106781187  L 480.185786437627 236  L 475.892893218813 240.292893218813  L 477.307106781187 241.707106781187  L 482.307106781187 236.707106781187  L 483.014213562373 236  L 482.307106781187 235.292893218813  L 477.307106781187 230.292893218813  L 475.892893218813 231.707106781187  Z " fill-rule="nonzero" fill="#0099ff" stroke="none" />
</svg>